<svg xmlns="http://www.w3.org/2000/svg" viewBox="0 0 128 128" width="128" height="128">
  <defs>
    <linearGradient id="g" x1="0" x2="1" y1="0" y2="1">
      <stop offset="0%" stop-color="#78350f"/>
      <stop offset="100%" stop-color="#92400e"/>
    </linearGradient>
  </defs>
  <rect width="128" height="128" rx="24" fill="url(#g)"/>
  <path d="M32 76c6 20 22 24 32 24 26 0 40-18 40-36 0-18-14-36-40-36-18 0-30 8-36 18l12 8c4-6 12-10 24-10 18 0 26 10 26 20 0 10-8 20-26 20-8 0-18-2-24-8z" fill="#fff"/>
</svg>
